<?xml version="1.0" encoding="UTF-8" standalone="no"?>
<svg width="109px" height="17px" viewBox="0 0 109 17" version="1.1" xmlns="http://www.w3.org/2000/svg" xmlns:xlink="http://www.w3.org/1999/xlink" xmlns:sketch="http://www.bohemiancoding.com/sketch/ns">
    <!-- Generator: Sketch 3.3.3 (12072) - http://www.bohemiancoding.com/sketch -->
    <title>teamleader-logo</title>
    <desc>Created with Sketch.</desc>
    <defs></defs>
    <g id="Page-1" stroke="none" stroke-width="1" fill="none" fill-rule="evenodd" sketch:type="MSPage">
        <path d="M11.88,2.14 L11.88,4.8 L7.7,4.8 L7.7,16 L4.58,16 L4.58,4.8 L0.4,4.8 L0.4,2.14 L11.88,2.14 Z M11.68,10.82 C11.68,9.886662 11.8233319,9.0700035 12.11,8.37 C12.3966681,7.6699965 12.773331,7.086669 13.24,6.62 C13.706669,6.153331 14.2433303,5.8000012 14.85,5.56 C15.4566697,5.3199988 16.0799968,5.2 16.72,5.2 C18.2133408,5.2 19.393329,5.6566621 20.26,6.57 C21.126671,7.4833379 21.56,8.8266578 21.56,10.6 C21.56,10.7733342 21.5533334,10.9633323 21.54,11.17 C21.5266666,11.3766677 21.5133334,11.5599992 21.5,11.72 L14.74,11.72 C14.806667,12.3333364 15.0933308,12.8199982 15.6,13.18 C16.1066692,13.5400018 16.7866624,13.72 17.64,13.72 C18.1866694,13.72 18.7233307,13.6700005 19.25,13.57 C19.7766693,13.4699995 20.206665,13.3466674 20.54,13.2 L20.94,15.62 C20.7799992,15.7000004 20.566668,15.7799996 20.3,15.86 C20.033332,15.9400004 19.7366683,16.0099997 19.41,16.07 C19.0833317,16.1300003 18.7333352,16.1799998 18.36,16.22 C17.9866648,16.2600002 17.6133352,16.28 17.24,16.28 C16.2933286,16.28 15.4700035,16.1400014 14.77,15.86 C14.0699965,15.5799986 13.4900023,15.1966691 13.03,14.71 C12.5699977,14.2233309 12.2300011,13.64667 12.01,12.98 C11.7899989,12.31333 11.68,11.5933372 11.68,10.82 L11.68,10.82 Z M18.68,9.68 C18.6666666,9.4266654 18.6233337,9.1800012 18.55,8.94 C18.4766663,8.6999988 18.3633341,8.4866676 18.21,8.3 C18.0566659,8.1133324 17.8633345,7.9600006 17.63,7.84 C17.3966655,7.7199994 17.1066684,7.66 16.76,7.66 C16.426665,7.66 16.1400012,7.7166661 15.9,7.83 C15.6599988,7.9433339 15.4600008,8.0933324 15.3,8.28 C15.1399992,8.4666676 15.0166671,8.6833321 14.93,8.93 C14.8433329,9.1766679 14.7800002,9.4266654 14.74,9.68 L18.68,9.68 Z M27.88,13.92 C28.1733348,13.92 28.453332,13.9133334 28.72,13.9 C28.986668,13.8866666 29.1999992,13.8666668 29.36,13.84 L29.36,11.58 C29.2399994,11.5533332 29.0600012,11.5266668 28.82,11.5 C28.5799988,11.4733332 28.360001,11.46 28.16,11.46 C27.8799986,11.46 27.6166679,11.4766665 27.37,11.51 C27.1233321,11.5433335 26.9066676,11.6066662 26.72,11.7 C26.5333324,11.7933338 26.3866672,11.9199992 26.28,12.08 C26.1733328,12.2400008 26.12,12.4399988 26.12,12.68 C26.12,13.146669 26.2766651,13.4699991 26.59,13.65 C26.9033349,13.8300009 27.3333306,13.92 27.88,13.92 L27.88,13.92 Z M27.64,5.2 C28.5200044,5.2 29.2533304,5.299999 29.84,5.5 C30.4266696,5.700001 30.8966649,5.9866648 31.25,6.36 C31.6033351,6.7333352 31.8533326,7.186664 32,7.72 C32.1466674,8.253336 32.22,8.8466634 32.22,9.5 L32.22,15.7 C31.7933312,15.7933338 31.2000038,15.9033327 30.44,16.03 C29.6799962,16.1566673 28.7600054,16.22 27.68,16.22 C26.9999966,16.22 26.3833361,16.1600006 25.83,16.04 C25.2766639,15.9199994 24.800002,15.7233347 24.4,15.45 C23.999998,15.1766653 23.6933344,14.8200022 23.48,14.38 C23.2666656,13.9399978 23.16,13.4000032 23.16,12.76 C23.16,12.1466636 23.2833321,11.6266688 23.53,11.2 C23.7766679,10.7733312 24.1066646,10.4333346 24.52,10.18 C24.9333354,9.9266654 25.406664,9.7433339 25.94,9.63 C26.473336,9.5166661 27.0266638,9.46 27.6,9.46 C27.9866686,9.46 28.3299985,9.4766665 28.63,9.51 C28.9300015,9.5433335 29.1733324,9.5866664 29.36,9.64 L29.36,9.36 C29.36,8.8533308 29.2066682,8.4466682 28.9,8.14 C28.5933318,7.8333318 28.0600038,7.68 27.3,7.68 C26.7933308,7.68 26.2933358,7.7166663 25.8,7.79 C25.3066642,7.8633337 24.8800018,7.966666 24.52,8.1 L24.14,5.7 C24.3133342,5.6466664 24.5299987,5.5900003 24.79,5.53 C25.0500013,5.4699997 25.3333318,5.4166669 25.64,5.37 C25.9466682,5.3233331 26.2699983,5.2833335 26.61,5.25 C26.9500017,5.2166665 27.2933316,5.2 27.64,5.2 L27.64,5.2 Z M40.7,10.42 C40.7,9.4599952 40.5766679,8.780002 40.33,8.38 C40.0833321,7.979998 39.660003,7.78 39.06,7.78 C38.8733324,7.78 38.680001,7.7899999 38.48,7.81 C38.279999,7.8300001 38.0866676,7.8533332 37.9,7.88 L37.9,16 L34.92,16 L34.92,5.84 C35.1733346,5.773333 35.4699983,5.7033337 35.81,5.63 C36.1500017,5.5566663 36.5099981,5.4900003 36.89,5.43 C37.2700019,5.3699997 37.659998,5.3233335 38.06,5.29 C38.460002,5.2566665 38.8533314,5.24 39.24,5.24 C40.0000038,5.24 40.6166643,5.3366657 41.09,5.53 C41.5633357,5.7233343 41.9533318,5.953332 42.26,6.22 C42.6866688,5.9133318 43.1766639,5.6733342 43.73,5.5 C44.2833361,5.3266658 44.793331,5.24 45.26,5.24 C46.1000042,5.24 46.7899973,5.3566655 47.33,5.59 C47.8700027,5.8233345 48.2999984,6.1533312 48.62,6.58 C48.9400016,7.0066688 49.1599994,7.5133304 49.28,8.1 C49.4000006,8.6866696 49.46,9.3399964 49.46,10.06 L49.46,16 L46.48,16 L46.48,10.42 C46.48,9.4599952 46.3566679,8.780002 46.11,8.38 C45.8633321,7.979998 45.440003,7.78 44.84,7.78 C44.6799992,7.78 44.4566681,7.8199996 44.17,7.9 C43.8833319,7.9800004 43.6466676,8.0799994 43.46,8.2 C43.5533338,8.5066682 43.6133332,8.8299983 43.64,9.17 C43.6666668,9.5100017 43.68,9.8733314 43.68,10.26 L43.68,16 L40.7,16 L40.7,10.42 Z" id="Team" fill="#188BDC" sketch:type="MSShapeGroup"></path>
        <path d="M55.22,16.2 C54.0733276,16.1733332 53.2600024,15.926669 52.78,15.46 C52.2999976,14.993331 52.06,14.2666716 52.06,13.28 L52.06,0.8 L53.92,0.48 L53.92,12.98 C53.92,13.2866682 53.9466664,13.539999 54,13.74 C54.0533336,13.940001 54.1399994,14.0999994 54.26,14.22 C54.3800006,14.3400006 54.539999,14.4299997 54.74,14.49 C54.940001,14.5500003 55.1866652,14.5999998 55.48,14.64 L55.22,16.2 Z M56.98,10.82 C56.98,9.8999954 57.113332,9.0966701 57.38,8.41 C57.646668,7.7233299 57.9999978,7.1533356 58.44,6.7 C58.8800022,6.2466644 59.3866638,5.9066678 59.96,5.68 C60.5333362,5.4533322 61.119997,5.34 61.72,5.34 C63.120007,5.34 64.1933296,5.7766623 64.94,6.65 C65.6866704,7.5233377 66.06,8.8533244 66.06,10.64 L66.06,10.95 C66.06,11.0766673 66.0533334,11.1933328 66.04,11.3 L58.92,11.3 C59.0000004,12.3800054 59.3133306,13.1999972 59.86,13.76 C60.4066694,14.3200028 61.2599942,14.6 62.42,14.6 C63.0733366,14.6 63.6233311,14.5433339 64.07,14.43 C64.5166689,14.3166661 64.8533322,14.2066672 65.08,14.1 L65.34,15.66 C65.1133322,15.7800006 64.7166695,15.906666 64.15,16.04 C63.5833305,16.173334 62.9400036,16.24 62.22,16.24 C61.3133288,16.24 60.5300033,16.1033347 59.87,15.83 C59.2099967,15.5566653 58.6666688,15.1800024 58.24,14.7 C57.8133312,14.2199976 57.4966677,13.6500033 57.29,12.99 C57.0833323,12.3299967 56.98,11.6066706 56.98,10.82 L56.98,10.82 Z M64.12,9.8 C64.1333334,8.9599958 63.9233355,8.2700027 63.49,7.73 C63.0566645,7.1899973 62.4600038,6.92 61.7,6.92 C61.2733312,6.92 60.8966683,7.0033325 60.57,7.17 C60.2433317,7.3366675 59.9666678,7.553332 59.74,7.82 C59.5133322,8.086668 59.3366673,8.3933316 59.21,8.74 C59.0833327,9.0866684 59.0000002,9.4399982 58.96,9.8 L64.12,9.8 Z M72.26,14.66 C72.7000022,14.66 73.0899983,14.6500001 73.43,14.63 C73.7700017,14.6099999 74.0533322,14.5733336 74.28,14.52 L74.28,11.42 C74.146666,11.353333 73.9300015,11.2966669 73.63,11.25 C73.3299985,11.2033331 72.9666688,11.18 72.54,11.18 C72.2599986,11.18 71.9633349,11.1999998 71.65,11.24 C71.3366651,11.2800002 71.0500013,11.3633327 70.79,11.49 C70.5299987,11.6166673 70.3133342,11.7899989 70.14,12.01 C69.9666658,12.2300011 69.88,12.5199982 69.88,12.88 C69.88,13.54667 70.0933312,14.0099987 70.52,14.27 C70.9466688,14.5300013 71.526663,14.66 72.26,14.66 L72.26,14.66 Z M72.1,5.34 C72.8466704,5.34 73.4766641,5.4366657 73.99,5.63 C74.5033359,5.8233343 74.9166651,6.0966649 75.23,6.45 C75.5433349,6.8033351 75.766666,7.2233309 75.9,7.71 C76.033334,8.1966691 76.1,8.7333304 76.1,9.32 L76.1,15.82 C75.9399992,15.8466668 75.7166681,15.8833331 75.43,15.93 C75.1433319,15.9766669 74.8200018,16.0199998 74.46,16.06 C74.0999982,16.1000002 73.7100021,16.1366665 73.29,16.17 C72.8699979,16.2033335 72.4533354,16.22 72.04,16.22 C71.4533304,16.22 70.9133358,16.1600006 70.42,16.04 C69.9266642,15.9199994 69.5000018,15.7300013 69.14,15.47 C68.7799982,15.2099987 68.500001,14.8666688 68.3,14.44 C68.099999,14.0133312 68,13.500003 68,12.9 C68,12.3266638 68.1166655,11.8333354 68.35,11.42 C68.5833345,11.0066646 68.899998,10.6733346 69.3,10.42 C69.700002,10.1666654 70.166664,9.9800006 70.7,9.86 C71.233336,9.7399994 71.7933304,9.68 72.38,9.68 C72.5666676,9.68 72.759999,9.6899999 72.96,9.71 C73.160001,9.7300001 73.3499991,9.7566665 73.53,9.79 C73.7100009,9.8233335 73.866666,9.8533332 74,9.88 C74.133334,9.9066668 74.2266664,9.9266666 74.28,9.94 L74.28,9.42 C74.28,9.1133318 74.246667,8.8100015 74.18,8.51 C74.113333,8.2099985 73.9933342,7.9433345 73.82,7.71 C73.6466658,7.4766655 73.4100015,7.2900007 73.11,7.15 C72.8099985,7.0099993 72.4200024,6.94 71.94,6.94 C71.3266636,6.94 70.7900023,6.9833329 70.33,7.07 C69.8699977,7.1566671 69.5266678,7.2466662 69.3,7.34 L69.08,5.8 C69.3200012,5.6933328 69.7199972,5.5900005 70.28,5.49 C70.8400028,5.3899995 71.4466634,5.34 72.1,5.34 L72.1,5.34 Z M85.9,7.8 C85.6733322,7.6133324 85.3466688,7.4333342 84.92,7.26 C84.4933312,7.0866658 84.0266692,7 83.52,7 C82.986664,7 82.5300019,7.0966657 82.15,7.29 C81.7699981,7.4833343 81.4600012,7.7499983 81.22,8.09 C80.9799988,8.4300017 80.8066672,8.833331 80.7,9.3 C80.5933328,9.766669 80.54,10.266664 80.54,10.8 C80.54,12.0133394 80.839997,12.9499967 81.44,13.61 C82.040003,14.2700033 82.839995,14.6 83.84,14.6 C84.3466692,14.6 84.7699983,14.5766669 85.11,14.53 C85.4500017,14.4833331 85.7133324,14.4333336 85.9,14.38 L85.9,7.8 Z M85.9,0.8 L87.76,0.48 L87.76,15.7 C87.3333312,15.8200006 86.78667,15.9399994 86.12,16.06 C85.45333,16.1800006 84.686671,16.24 83.82,16.24 C83.019996,16.24 82.3000032,16.1133346 81.66,15.86 C81.0199968,15.6066654 80.4733356,15.246669 80.02,14.78 C79.5666644,14.313331 79.2166679,13.7433367 78.97,13.07 C78.7233321,12.3966633 78.6,11.6400042 78.6,10.8 C78.6,9.999996 78.7033323,9.26667 78.91,8.6 C79.1166677,7.93333 79.419998,7.3600024 79.82,6.88 C80.220002,6.3999976 80.7099971,6.026668 81.29,5.76 C81.8700029,5.493332 82.5333296,5.36 83.28,5.36 C83.880003,5.36 84.4099977,5.4399992 84.87,5.6 C85.3300023,5.7600008 85.6733322,5.9133326 85.9,6.06 L85.9,0.8 Z M90.38,10.82 C90.38,9.8999954 90.513332,9.0966701 90.78,8.41 C91.046668,7.7233299 91.3999978,7.1533356 91.84,6.7 C92.2800022,6.2466644 92.7866638,5.9066678 93.36,5.68 C93.9333362,5.4533322 94.519997,5.34 95.12,5.34 C96.520007,5.34 97.5933296,5.7766623 98.34,6.65 C99.0866704,7.5233377 99.46,8.8533244 99.46,10.64 C99.46,10.7200004 99.46,10.8233327 99.46,10.95 C99.46,11.0766673 99.4533334,11.1933328 99.44,11.3 L92.32,11.3 C92.4000004,12.3800054 92.7133306,13.1999972 93.26,13.76 C93.8066694,14.3200028 94.6599942,14.6 95.82,14.6 C96.4733366,14.6 97.0233311,14.5433339 97.47,14.43 C97.9166689,14.3166661 98.2533322,14.2066672 98.48,14.1 L98.74,15.66 C98.5133322,15.7800006 98.1166695,15.906666 97.55,16.04 C96.9833305,16.173334 96.3400036,16.24 95.62,16.24 C94.7133288,16.24 93.9300033,16.1033347 93.27,15.83 C92.6099967,15.5566653 92.0666688,15.1800024 91.64,14.7 C91.2133312,14.2199976 90.8966677,13.6500033 90.69,12.99 C90.4833323,12.3299967 90.38,11.6066706 90.38,10.82 L90.38,10.82 Z M97.52,9.8 C97.5333334,8.9599958 97.3233355,8.2700027 96.89,7.73 C96.4566645,7.1899973 95.8600038,6.92 95.1,6.92 C94.6733312,6.92 94.2966683,7.0033325 93.97,7.17 C93.6433317,7.3366675 93.3666678,7.553332 93.14,7.82 C92.9133322,8.086668 92.7366673,8.3933316 92.61,8.74 C92.4833327,9.0866684 92.4000002,9.4399982 92.36,9.8 L97.52,9.8 Z M105.98,5.38 C106.140001,5.38 106.323332,5.3899999 106.53,5.41 C106.736668,5.4300001 106.939999,5.4566665 107.14,5.49 C107.340001,5.5233335 107.523332,5.5566665 107.69,5.59 C107.856668,5.6233335 107.98,5.6533332 108.06,5.68 L107.74,7.3 C107.593333,7.2466664 107.350002,7.1833337 107.01,7.11 C106.669998,7.0366663 106.233336,7 105.7,7 C105.353332,7 105.010002,7.0366663 104.67,7.11 C104.329998,7.1833337 104.106667,7.2333332 104,7.26 L104,16 L102.14,16 L102.14,6.04 C102.580002,5.8799992 103.126663,5.7300007 103.78,5.59 C104.433337,5.4499993 105.166663,5.38 105.98,5.38 L105.98,5.38 Z" id="leader" fill="#3C3C3C" sketch:type="MSShapeGroup"></path>
    </g>
</svg>